<svg width="378" height="97" viewBox="0 0 378 97" fill="none" xmlns="http://www.w3.org/2000/svg">
<rect width="378" height="97" fill="#E5E5E5"/>
<rect width="378" height="97" fill="#FA5858"/>
<path d="M35.08 37.94C39.7467 37.94 43.5267 39.3633 46.42 42.21C49.3133 45.01 50.76 49.07 50.76 54.39V77H44.46V55.3C44.46 51.4733 43.5033 48.5567 41.59 46.55C39.6767 44.4967 37.0633 43.47 33.75 43.47C30.39 43.47 27.7067 44.52 25.7 46.62C23.74 48.72 22.76 51.7767 22.76 55.79V77H16.39V38.64H22.76V44.1C24.02 42.14 25.7233 40.6233 27.87 39.55C30.0633 38.4767 32.4667 37.94 35.08 37.94ZM96.1654 56.35C96.1654 57.5633 96.0954 58.8467 95.9554 60.2H65.2954C65.5287 63.98 66.8121 66.9433 69.1454 69.09C71.5254 71.19 74.3954 72.24 77.7554 72.24C80.5087 72.24 82.7954 71.61 84.6154 70.35C86.4821 69.0433 87.7887 67.3167 88.5354 65.17H95.3954C94.3687 68.8567 92.3154 71.8667 89.2354 74.2C86.1554 76.4867 82.3287 77.63 77.7554 77.63C74.1154 77.63 70.8487 76.8133 67.9554 75.18C65.1087 73.5467 62.8687 71.2367 61.2354 68.25C59.6021 65.2167 58.7854 61.7167 58.7854 57.75C58.7854 53.7833 59.5787 50.3067 61.1654 47.32C62.7521 44.3333 64.9687 42.0467 67.8154 40.46C70.7087 38.8267 74.0221 38.01 77.7554 38.01C81.3954 38.01 84.6154 38.8033 87.4154 40.39C90.2154 41.9767 92.3621 44.17 93.8554 46.97C95.3954 49.7233 96.1654 52.85 96.1654 56.35ZM89.5854 55.02C89.5854 52.5933 89.0487 50.5167 87.9754 48.79C86.9021 47.0167 85.4321 45.6867 83.5654 44.8C81.7454 43.8667 79.7154 43.4 77.4754 43.4C74.2554 43.4 71.5021 44.4267 69.2154 46.48C66.9754 48.5333 65.6921 51.38 65.3654 55.02H89.5854ZM155.674 38.64L143.704 77H137.124L127.884 46.55L118.644 77H112.064L100.024 38.64H106.534L115.354 70.84L124.874 38.64H131.384L140.694 70.91L149.374 38.64H155.674ZM199.585 28.21V77H193.215V54.88H168.365V77H161.995V28.21H168.365V49.63H193.215V28.21H199.585ZM227.192 77.63C223.599 77.63 220.332 76.8133 217.392 75.18C214.499 73.5467 212.212 71.2367 210.532 68.25C208.899 65.2167 208.082 61.7167 208.082 57.75C208.082 53.83 208.922 50.3767 210.602 47.39C212.329 44.3567 214.662 42.0467 217.602 40.46C220.542 38.8267 223.832 38.01 227.472 38.01C231.112 38.01 234.402 38.8267 237.342 40.46C240.282 42.0467 242.592 44.3333 244.272 47.32C245.999 50.3067 246.862 53.7833 246.862 57.75C246.862 61.7167 245.976 65.2167 244.202 68.25C242.476 71.2367 240.119 73.5467 237.132 75.18C234.146 76.8133 230.832 77.63 227.192 77.63ZM227.192 72.03C229.479 72.03 231.626 71.4933 233.632 70.42C235.639 69.3467 237.249 67.7367 238.462 65.59C239.722 63.4433 240.352 60.83 240.352 57.75C240.352 54.67 239.746 52.0567 238.532 49.91C237.319 47.7633 235.732 46.1767 233.772 45.15C231.812 44.0767 229.689 43.54 227.402 43.54C225.069 43.54 222.922 44.0767 220.962 45.15C219.049 46.1767 217.509 47.7633 216.342 49.91C215.176 52.0567 214.592 54.67 214.592 57.75C214.592 60.8767 215.152 63.5133 216.272 65.66C217.439 67.8067 218.979 69.4167 220.892 70.49C222.806 71.5167 224.906 72.03 227.192 72.03ZM301.368 37.94C304.354 37.94 307.014 38.57 309.348 39.83C311.681 41.0433 313.524 42.8867 314.878 45.36C316.231 47.8333 316.908 50.8433 316.908 54.39V77H310.608V55.3C310.608 51.4733 309.651 48.5567 307.738 46.55C305.871 44.4967 303.328 43.47 300.108 43.47C296.794 43.47 294.158 44.5433 292.198 46.69C290.238 48.79 289.258 51.8467 289.258 55.86V77H282.958V55.3C282.958 51.4733 282.001 48.5567 280.088 46.55C278.221 44.4967 275.678 43.47 272.458 43.47C269.144 43.47 266.508 44.5433 264.548 46.69C262.588 48.79 261.608 51.8467 261.608 55.86V77H255.238V38.64H261.608V44.17C262.868 42.1633 264.548 40.6233 266.648 39.55C268.794 38.4767 271.151 37.94 273.718 37.94C276.938 37.94 279.784 38.6633 282.258 40.11C284.731 41.5567 286.574 43.68 287.788 46.48C288.861 43.7733 290.634 41.6733 293.108 40.18C295.581 38.6867 298.334 37.94 301.368 37.94ZM362.357 56.35C362.357 57.5633 362.287 58.8467 362.147 60.2H331.487C331.72 63.98 333.003 66.9433 335.337 69.09C337.717 71.19 340.587 72.24 343.947 72.24C346.7 72.24 348.987 71.61 350.807 70.35C352.673 69.0433 353.98 67.3167 354.727 65.17H361.587C360.56 68.8567 358.507 71.8667 355.427 74.2C352.347 76.4867 348.52 77.63 343.947 77.63C340.307 77.63 337.04 76.8133 334.147 75.18C331.3 73.5467 329.06 71.2367 327.427 68.25C325.793 65.2167 324.977 61.7167 324.977 57.75C324.977 53.7833 325.77 50.3067 327.357 47.32C328.943 44.3333 331.16 42.0467 334.007 40.46C336.9 38.8267 340.213 38.01 343.947 38.01C347.587 38.01 350.807 38.8033 353.607 40.39C356.407 41.9767 358.553 44.17 360.047 46.97C361.587 49.7233 362.357 52.85 362.357 56.35ZM355.777 55.02C355.777 52.5933 355.24 50.5167 354.167 48.79C353.093 47.0167 351.623 45.6867 349.757 44.8C347.937 43.8667 345.907 43.4 343.667 43.4C340.447 43.4 337.693 44.4267 335.407 46.48C333.167 48.5333 331.883 51.38 331.557 55.02H355.777Z" fill="#FFFBFB"/>
<path d="M46.42 42.21L45.7186 42.9229L45.7246 42.9286L46.42 42.21ZM50.76 77V78H51.76V77H50.76ZM44.46 77H43.46V78H44.46V77ZM41.59 46.55L40.8583 47.2318L40.8663 47.2401L41.59 46.55ZM25.7 46.62L24.977 45.9291L24.9689 45.9377L25.7 46.62ZM22.76 77V78H23.76V77H22.76ZM16.39 77H15.39V78H16.39V77ZM16.39 38.64V37.64H15.39V38.64H16.39ZM22.76 38.64H23.76V37.64H22.76V38.64ZM22.76 44.1H21.76V47.5048L23.6012 44.6408L22.76 44.1ZM27.87 39.55L27.4304 38.6517L27.4228 38.6556L27.87 39.55ZM35.08 38.94C39.5268 38.94 43.0406 40.288 45.7187 42.9228L47.1213 41.4972C44.0127 38.4387 39.9666 36.94 35.08 36.94V38.94ZM45.7246 42.9286C48.3665 45.4853 49.76 49.2502 49.76 54.39H51.76C51.76 48.8898 50.2602 44.5347 47.1154 41.4914L45.7246 42.9286ZM49.76 54.39V77H51.76V54.39H49.76ZM50.76 76H44.46V78H50.76V76ZM45.46 77V55.3H43.46V77H45.46ZM45.46 55.3C45.46 51.3153 44.4626 48.1136 42.3137 45.8599L40.8663 47.2401C42.5441 48.9997 43.46 51.6314 43.46 55.3H45.46ZM42.3216 45.8683C40.1849 43.5752 37.2863 42.47 33.75 42.47V44.47C36.8404 44.47 39.1684 45.4181 40.8584 47.2317L42.3216 45.8683ZM33.75 42.47C30.1636 42.47 27.2023 43.6003 24.977 45.9291L26.423 47.3109C28.211 45.4397 30.6164 44.47 33.75 44.47V42.47ZM24.9689 45.9377C22.7777 48.2855 21.76 51.6245 21.76 55.79H23.76C23.76 51.9288 24.7023 49.1545 26.4311 47.3023L24.9689 45.9377ZM21.76 55.79V77H23.76V55.79H21.76ZM22.76 76H16.39V78H22.76V76ZM17.39 77V38.64H15.39V77H17.39ZM16.39 39.64H22.76V37.64H16.39V39.64ZM21.76 38.64V44.1H23.76V38.64H21.76ZM23.6012 44.6408C24.761 42.8366 26.3262 41.4399 28.3172 40.4444L27.4228 38.6556C25.1205 39.8067 23.279 41.4434 21.9188 43.5592L23.6012 44.6408ZM28.3096 40.4482C30.3565 39.4465 32.6081 38.94 35.08 38.94V36.94C32.3252 36.94 29.7701 37.5068 27.4304 38.6518L28.3096 40.4482ZM95.9554 60.2V61.2H96.8573L96.9501 60.3029L95.9554 60.2ZM65.2954 60.2V59.2H64.2318L64.2973 60.2616L65.2954 60.2ZM69.1454 69.09L68.4683 69.8259L68.476 69.833L68.4838 69.8398L69.1454 69.09ZM84.6154 70.35L85.1846 71.1722L85.1889 71.1692L84.6154 70.35ZM88.5354 65.17V64.17H87.8245L87.5909 64.8415L88.5354 65.17ZM95.3954 65.17L96.3587 65.4383L96.7119 64.17H95.3954V65.17ZM89.2354 74.2L89.8315 75.0029L89.8392 74.9971L89.2354 74.2ZM67.9554 75.18L67.4577 76.0474L67.4638 76.0508L67.9554 75.18ZM61.2354 68.25L60.3549 68.7241L60.358 68.7298L61.2354 68.25ZM61.1654 47.32L62.0485 47.7892L62.0485 47.7892L61.1654 47.32ZM67.8154 40.46L68.3023 41.3335L68.307 41.3308L67.8154 40.46ZM87.4154 40.39L86.9224 41.26L86.9224 41.26L87.4154 40.39ZM93.8554 46.97L92.973 47.4406L92.9777 47.4494L92.9826 47.4582L93.8554 46.97ZM89.5854 55.02V56.02H90.5854V55.02H89.5854ZM87.9754 48.79L87.1198 49.3078L87.1261 49.3179L87.9754 48.79ZM83.5654 44.8L83.1091 45.6898L83.1226 45.6968L83.1363 45.7033L83.5654 44.8ZM69.2154 46.48L68.5472 45.7359L68.5397 45.7428L69.2154 46.48ZM65.3654 55.02L64.3694 54.9306L64.2716 56.02H65.3654V55.02ZM95.1654 56.35C95.1654 57.5251 95.0976 58.7739 94.9607 60.0971L96.9501 60.3029C97.0932 58.9194 97.1654 57.6015 97.1654 56.35H95.1654ZM95.9554 59.2H65.2954V61.2H95.9554V59.2ZM64.2973 60.2616C64.5432 64.246 65.9089 67.4712 68.4683 69.8259L69.8224 68.3541C67.7152 66.4154 66.5142 63.714 66.2935 60.1384L64.2973 60.2616ZM68.4838 69.8398C71.0578 72.111 74.1673 73.24 77.7554 73.24V71.24C74.6235 71.24 71.993 70.269 69.807 68.3402L68.4838 69.8398ZM77.7554 73.24C80.6622 73.24 83.1605 72.5735 85.1846 71.1722L84.0462 69.5278C82.4303 70.6465 80.3553 71.24 77.7554 71.24V73.24ZM85.1889 71.1692C87.2272 69.7424 88.664 67.8442 89.4799 65.4985L87.5909 64.8415C86.9135 66.7891 85.7369 68.3443 84.0419 69.5308L85.1889 71.1692ZM88.5354 66.17H95.3954V64.17H88.5354V66.17ZM94.4321 64.9017C93.4647 68.3753 91.5389 71.2004 88.6315 73.4029L89.8392 74.9971C93.0919 72.533 95.2727 69.338 96.3587 65.4383L94.4321 64.9017ZM88.6393 73.3971C85.7629 75.5326 82.1565 76.63 77.7554 76.63V78.63C82.501 78.63 86.5479 77.4408 89.8315 75.0029L88.6393 73.3971ZM77.7554 76.63C74.2708 76.63 71.1763 75.8499 68.447 74.3092L67.4638 76.0508C70.5212 77.7768 73.96 78.63 77.7554 78.63V76.63ZM68.4531 74.3126C65.7724 72.7745 63.6611 70.6015 62.1128 67.7702L60.358 68.7298C62.0763 71.8719 64.4451 74.3188 67.4577 76.0474L68.4531 74.3126ZM62.1159 67.7759C60.5721 64.909 59.7854 61.5764 59.7854 57.75H57.7854C57.7854 61.8569 58.632 65.5243 60.3549 68.7241L62.1159 67.7759ZM59.7854 57.75C59.7854 53.9186 60.5509 50.6083 62.0485 47.7892L60.2823 46.8508C58.6066 50.0051 57.7854 53.6481 57.7854 57.75H59.7854ZM62.0485 47.7892C63.5484 44.9658 65.6304 42.8227 68.3022 41.3335L67.3285 39.5865C64.307 41.2706 61.9557 43.7008 60.2823 46.8508L62.0485 47.7892ZM68.307 41.3308C71.0325 39.7922 74.1726 39.01 77.7554 39.01V37.01C73.8715 37.01 70.385 37.8611 67.3238 39.5892L68.307 41.3308ZM77.7554 39.01C81.2456 39.01 84.2916 39.7692 86.9224 41.26L87.9084 39.52C84.9392 37.8374 81.5452 37.01 77.7554 37.01V39.01ZM86.9224 41.26C89.5598 42.7546 91.5703 44.8105 92.973 47.4406L94.7377 46.4994C93.1538 43.5295 90.871 41.1988 87.9084 39.52L86.9224 41.26ZM92.9826 47.4582C94.4303 50.0465 95.1654 53.0018 95.1654 56.35H97.1654C97.1654 52.6982 96.3604 49.4002 94.7282 46.4818L92.9826 47.4582ZM90.5854 55.02C90.5854 52.4432 90.0141 50.1756 88.8247 48.2621L87.1261 49.3179C88.0833 50.8578 88.5854 52.7435 88.5854 55.02H90.5854ZM88.8309 48.2722C87.6565 46.3319 86.0385 44.8676 83.9944 43.8967L83.1363 45.7033C84.8256 46.5057 86.1476 47.7014 87.1199 49.3078L88.8309 48.2722ZM84.0217 43.9102C82.0474 42.8977 79.8587 42.4 77.4754 42.4V44.4C79.5721 44.4 81.4434 44.8356 83.1091 45.6898L84.0217 43.9102ZM77.4754 42.4C74.0216 42.4 71.0268 43.5094 68.5473 45.7359L69.8835 47.224C71.9773 45.3439 74.4891 44.4 77.4754 44.4V42.4ZM68.5397 45.7428C66.0801 47.9975 64.7136 51.0954 64.3694 54.9306L66.3614 55.1094C66.6705 51.6646 67.8707 49.0692 69.8911 47.2172L68.5397 45.7428ZM65.3654 56.02H89.5854V54.02H65.3654V56.02ZM155.674 38.64L156.628 38.9379L157.033 37.64H155.674V38.64ZM143.704 77V78H144.439L144.658 77.2979L143.704 77ZM137.124 77L136.167 77.2904L136.382 78H137.124V77ZM127.884 46.55L128.841 46.2596L127.884 43.1062L126.927 46.2596L127.884 46.55ZM118.644 77V78H119.385L119.601 77.2904L118.644 77ZM112.064 77L111.109 77.2995L111.329 78H112.064V77ZM100.024 38.64V37.64H98.6616L99.0695 38.9395L100.024 38.64ZM106.534 38.64L107.498 38.3758L107.297 37.64H106.534V38.64ZM115.354 70.84L114.389 71.1042L115.317 74.4913L116.313 71.1235L115.354 70.84ZM124.874 38.64V37.64H124.126L123.915 38.3565L124.874 38.64ZM131.384 38.64L132.344 38.3628L132.136 37.64H131.384V38.64ZM140.694 70.91L139.733 71.1872L140.727 74.6345L141.659 71.1697L140.694 70.91ZM149.374 38.64V37.64H148.607L148.408 38.3802L149.374 38.64ZM154.719 38.3421L142.749 76.7021L144.658 77.2979L156.628 38.9379L154.719 38.3421ZM143.704 76H137.124V78H143.704V76ZM138.081 76.7096L128.841 46.2596L126.927 46.8404L136.167 77.2904L138.081 76.7096ZM126.927 46.2596L117.687 76.7096L119.601 77.2904L128.841 46.8404L126.927 46.2596ZM118.644 76H112.064V78H118.644V76ZM113.018 76.7005L100.978 38.3405L99.0695 38.9395L111.109 77.2995L113.018 76.7005ZM100.024 39.64H106.534V37.64H100.024V39.64ZM105.569 38.9042L114.389 71.1042L116.318 70.5758L107.498 38.3758L105.569 38.9042ZM116.313 71.1235L125.833 38.9235L123.915 38.3565L114.395 70.5565L116.313 71.1235ZM124.874 39.64H131.384V37.64H124.874V39.64ZM130.423 38.9172L139.733 71.1872L141.654 70.6328L132.344 38.3628L130.423 38.9172ZM141.659 71.1697L150.339 38.8997L148.408 38.3802L139.728 70.6503L141.659 71.1697ZM149.374 39.64H155.674V37.64H149.374V39.64ZM199.585 28.21H200.585V27.21H199.585V28.21ZM199.585 77V78H200.585V77H199.585ZM193.215 77H192.215V78H193.215V77ZM193.215 54.88H194.215V53.88H193.215V54.88ZM168.365 54.88V53.88H167.365V54.88H168.365ZM168.365 77V78H169.365V77H168.365ZM161.995 77H160.995V78H161.995V77ZM161.995 28.21V27.21H160.995V28.21H161.995ZM168.365 28.21H169.365V27.21H168.365V28.21ZM168.365 49.63H167.365V50.63H168.365V49.63ZM193.215 49.63V50.63H194.215V49.63H193.215ZM193.215 28.21V27.21H192.215V28.21H193.215ZM198.585 28.21V77H200.585V28.21H198.585ZM199.585 76H193.215V78H199.585V76ZM194.215 77V54.88H192.215V77H194.215ZM193.215 53.88H168.365V55.88H193.215V53.88ZM167.365 54.88V77H169.365V54.88H167.365ZM168.365 76H161.995V78H168.365V76ZM162.995 77V28.21H160.995V77H162.995ZM161.995 29.21H168.365V27.21H161.995V29.21ZM167.365 28.21V49.63H169.365V28.21H167.365ZM168.365 50.63H193.215V48.63H168.365V50.63ZM194.215 49.63V28.21H192.215V49.63H194.215ZM193.215 29.21H199.585V27.21H193.215V29.21ZM217.392 75.18L216.901 76.0508L216.907 76.0542L217.392 75.18ZM210.532 68.25L209.652 68.7241L209.656 68.7322L209.661 68.7403L210.532 68.25ZM210.602 47.39L209.733 46.8953L209.731 46.8997L210.602 47.39ZM217.602 40.46L218.077 41.3401L218.088 41.3342L217.602 40.46ZM237.342 40.46L236.857 41.3342L236.867 41.34L237.342 40.46ZM244.272 47.32L243.401 47.8103L243.407 47.8205L244.272 47.32ZM244.202 68.25L243.339 67.7453L243.337 67.7495L244.202 68.25ZM237.132 75.18L237.612 76.0574L237.612 76.0574L237.132 75.18ZM238.462 65.59L237.6 65.0838L237.596 65.0908L237.592 65.0979L238.462 65.59ZM233.772 45.15L233.292 46.0271L233.3 46.0315L233.308 46.0358L233.772 45.15ZM220.962 45.15L221.435 46.0312L221.443 46.0271L220.962 45.15ZM216.342 49.91L217.221 50.3875L217.221 50.3875L216.342 49.91ZM216.272 65.66L215.386 66.1226L215.39 66.1301L215.394 66.1375L216.272 65.66ZM220.892 70.49L220.403 71.3621L220.411 71.3667L220.419 71.3712L220.892 70.49ZM227.192 76.63C223.757 76.63 220.659 75.851 217.878 74.3058L216.907 76.0542C220.005 77.7757 223.441 78.63 227.192 78.63V76.63ZM217.884 74.3092C215.155 72.7685 212.997 70.5925 211.404 67.7597L209.661 68.7403C211.427 71.8809 213.843 74.3248 216.901 76.0508L217.884 74.3092ZM211.413 67.7759C209.869 64.909 209.082 61.5764 209.082 57.75H207.082C207.082 61.8569 207.929 65.5243 209.652 68.7241L211.413 67.7759ZM209.082 57.75C209.082 53.9767 209.89 50.6968 211.474 47.8803L209.731 46.8997C207.955 50.0565 207.082 53.6833 207.082 57.75H209.082ZM211.471 47.8847C213.11 45.0065 215.31 42.8336 218.077 41.34L217.127 39.58C214.015 41.2597 211.548 43.7068 209.733 46.8953L211.471 47.8847ZM218.088 41.3342C220.867 39.7901 223.988 39.01 227.472 39.01V37.01C223.677 37.01 220.217 37.8633 217.117 39.5858L218.088 41.3342ZM227.472 39.01C230.957 39.01 234.077 39.7901 236.857 41.3342L237.828 39.5858C234.727 37.8633 231.268 37.01 227.472 37.01V39.01ZM236.867 41.34C239.636 42.8345 241.811 44.9839 243.401 47.8103L245.144 46.8297C243.374 43.6827 240.928 41.2589 237.817 39.58L236.867 41.34ZM243.407 47.8205C245.033 50.6335 245.862 53.9324 245.862 57.75H247.862C247.862 53.6343 246.965 49.9799 245.138 46.8195L243.407 47.8205ZM245.862 57.75C245.862 61.5626 245.012 64.8841 243.339 67.7453L245.066 68.7547C246.94 65.5493 247.862 61.8707 247.862 57.75H245.862ZM243.337 67.7495C241.7 70.5798 239.476 72.7584 236.652 74.3026L237.612 76.0574C240.762 74.3349 243.251 71.8935 245.068 68.7505L243.337 67.7495ZM236.652 74.3026C233.823 75.8499 230.677 76.63 227.192 76.63V78.63C230.988 78.63 234.468 77.7767 237.612 76.0574L236.652 74.3026ZM227.192 73.03C229.643 73.03 231.951 72.4531 234.104 71.3018L233.161 69.5382C231.3 70.5335 229.315 71.03 227.192 71.03V73.03ZM234.104 71.3018C236.292 70.1315 238.034 68.3795 239.333 66.0821L237.592 65.0979C236.464 67.0939 234.986 68.5618 233.161 69.5382L234.104 71.3018ZM239.325 66.0962C240.694 63.7635 241.352 60.966 241.352 57.75H239.352C239.352 60.694 238.751 63.1231 237.6 65.0838L239.325 66.0962ZM241.352 57.75C241.352 54.5399 240.72 51.7477 239.403 49.4179L237.662 50.4021C238.772 52.3656 239.352 54.8001 239.352 57.75H241.352ZM239.403 49.4179C238.106 47.1235 236.386 45.3902 234.236 44.2642L233.308 46.0358C235.079 46.9631 236.532 48.4032 237.662 50.4021L239.403 49.4179ZM234.253 44.2729C232.142 43.117 229.853 42.54 227.402 42.54V44.54C229.525 44.54 231.483 45.0363 233.292 46.0271L234.253 44.2729ZM227.402 42.54C224.909 42.54 222.596 43.1153 220.482 44.2729L221.443 46.0271C223.249 45.038 225.229 44.54 227.402 44.54V42.54ZM220.489 44.2688C218.383 45.3989 216.711 47.1367 215.464 49.4325L217.221 50.3875C218.307 48.3899 219.714 46.9545 221.435 46.0312L220.489 44.2688ZM215.464 49.4325C214.199 51.7591 213.592 54.5458 213.592 57.75H215.592C215.592 54.7942 216.152 52.3543 217.221 50.3875L215.464 49.4325ZM213.592 57.75C213.592 60.9922 214.173 63.7976 215.386 66.1226L217.159 65.1974C216.132 63.2291 215.592 60.7611 215.592 57.75H213.592ZM215.394 66.1375C216.64 68.4304 218.307 70.1863 220.403 71.3621L221.382 69.6179C219.651 68.647 218.238 67.183 217.151 65.1825L215.394 66.1375ZM220.419 71.3712C222.486 72.48 224.75 73.03 227.192 73.03V71.03C225.062 71.03 223.125 70.5533 221.365 69.6088L220.419 71.3712ZM309.348 39.83L308.873 40.7099L308.879 40.7136L308.886 40.7172L309.348 39.83ZM314.878 45.36L314 45.84L314 45.84L314.878 45.36ZM316.908 77V78H317.908V77H316.908ZM310.608 77H309.608V78H310.608V77ZM307.738 46.55L306.998 47.2227L307.006 47.2315L307.014 47.2401L307.738 46.55ZM292.198 46.69L292.929 47.3724L292.936 47.3643L292.198 46.69ZM289.258 77V78H290.258V77H289.258ZM282.958 77H281.958V78H282.958V77ZM280.088 46.55L279.348 47.2227L279.356 47.2315L279.364 47.2401L280.088 46.55ZM264.548 46.69L265.279 47.3724L265.286 47.3643L264.548 46.69ZM261.608 77V78H262.608V77H261.608ZM255.238 77H254.238V78H255.238V77ZM255.238 38.64V37.64H254.238V38.64H255.238ZM261.608 38.64H262.608V37.64H261.608V38.64ZM261.608 44.17H260.608V47.6431L262.455 44.7018L261.608 44.17ZM266.648 39.55L266.2 38.6555L266.193 38.6596L266.648 39.55ZM282.258 40.11L281.753 40.9732L281.753 40.9732L282.258 40.11ZM287.788 46.48L286.87 46.8776L287.829 49.0895L288.717 46.8486L287.788 46.48ZM293.108 40.18L293.625 41.0361L293.625 41.0361L293.108 40.18ZM301.368 38.94C304.21 38.94 306.703 39.5382 308.873 40.7099L309.823 38.9501C307.326 37.6018 304.499 36.94 301.368 36.94V38.94ZM308.886 40.7172C311.031 41.8324 312.735 43.5275 314 45.84L315.755 44.88C314.314 42.2458 312.331 40.2543 309.809 38.9428L308.886 40.7172ZM314 45.84C315.255 48.1329 315.908 50.9686 315.908 54.39H317.908C317.908 50.718 317.207 47.5337 315.755 44.88L314 45.84ZM315.908 54.39V77H317.908V54.39H315.908ZM316.908 76H310.608V78H316.908V76ZM311.608 77V55.3H309.608V77H311.608ZM311.608 55.3C311.608 51.3153 310.61 48.1136 308.461 45.8599L307.014 47.2401C308.692 48.9997 309.608 51.6314 309.608 55.3H311.608ZM308.478 45.8773C306.39 43.5814 303.56 42.47 300.108 42.47V44.47C303.096 44.47 305.352 45.4119 306.998 47.2227L308.478 45.8773ZM300.108 42.47C296.557 42.47 293.636 43.6316 291.459 46.0157L292.936 47.3643C294.679 45.4551 297.032 44.47 300.108 44.47V42.47ZM291.467 46.0077C289.275 48.3555 288.258 51.6945 288.258 55.86H290.258C290.258 51.9988 291.2 49.2245 292.929 47.3723L291.467 46.0077ZM288.258 55.86V77H290.258V55.86H288.258ZM289.258 76H282.958V78H289.258V76ZM283.958 77V55.3H281.958V77H283.958ZM283.958 55.3C283.958 51.3153 282.96 48.1136 280.811 45.8599L279.364 47.2401C281.042 48.9997 281.958 51.6314 281.958 55.3H283.958ZM280.828 45.8773C278.74 43.5814 275.91 42.47 272.458 42.47V44.47C275.446 44.47 277.702 45.4119 279.348 47.2227L280.828 45.8773ZM272.458 42.47C268.907 42.47 265.986 43.6316 263.809 46.0157L265.286 47.3643C267.029 45.4551 269.382 44.47 272.458 44.47V42.47ZM263.817 46.0077C261.625 48.3555 260.608 51.6945 260.608 55.86H262.608C262.608 51.9988 263.55 49.2245 265.279 47.3723L263.817 46.0077ZM260.608 55.86V77H262.608V55.86H260.608ZM261.608 76H255.238V78H261.608V76ZM256.238 77V38.64H254.238V77H256.238ZM255.238 39.64H261.608V37.64H255.238V39.64ZM260.608 38.64V44.17H262.608V38.64H260.608ZM262.455 44.7018C263.619 42.847 265.164 41.4313 267.103 40.4404L266.193 38.6596C263.931 39.8154 262.116 41.4796 260.761 43.6382L262.455 44.7018ZM267.095 40.4444C269.093 39.4453 271.295 38.94 273.718 38.94V36.94C271.007 36.94 268.496 37.508 266.2 38.6556L267.095 40.4444ZM273.718 38.94C276.783 38.94 279.451 39.6268 281.753 40.9732L282.763 39.2468C280.118 37.6999 277.093 36.94 273.718 36.94V38.94ZM281.753 40.9732C284.03 42.3053 285.735 44.2593 286.87 46.8776L288.705 46.0824C287.413 43.1007 285.432 40.808 282.763 39.2468L281.753 40.9732ZM288.717 46.8486C289.711 44.3435 291.34 42.4154 293.625 41.0361L292.591 39.3239C289.929 40.9312 288.011 43.2032 286.858 46.1114L288.717 46.8486ZM293.625 41.0361C295.934 39.6417 298.507 38.94 301.368 38.94V36.94C298.162 36.94 295.228 37.7316 292.591 39.3239L293.625 41.0361ZM362.147 60.2V61.2H363.049L363.141 60.3029L362.147 60.2ZM331.487 60.2V59.2H330.423L330.489 60.2616L331.487 60.2ZM335.337 69.09L334.66 69.8259L334.667 69.833L334.675 69.8398L335.337 69.09ZM350.807 70.35L351.376 71.1722L351.38 71.1692L350.807 70.35ZM354.727 65.17V64.17H354.016L353.782 64.8415L354.727 65.17ZM361.587 65.17L362.55 65.4383L362.903 64.17H361.587V65.17ZM355.427 74.2L356.023 75.0029L356.031 74.9971L355.427 74.2ZM334.147 75.18L333.649 76.0474L333.655 76.0508L334.147 75.18ZM327.427 68.25L326.546 68.7241L326.549 68.7298L327.427 68.25ZM327.357 47.32L328.24 47.7892L328.24 47.7892L327.357 47.32ZM334.007 40.46L334.494 41.3335L334.498 41.3308L334.007 40.46ZM353.607 40.39L353.114 41.26L353.114 41.26L353.607 40.39ZM360.047 46.97L359.164 47.4406L359.169 47.4494L359.174 47.4582L360.047 46.97ZM355.777 55.02V56.02H356.777V55.02H355.777ZM354.167 48.79L353.311 49.3078L353.318 49.3179L354.167 48.79ZM349.757 44.8L349.3 45.6898L349.314 45.6968L349.328 45.7033L349.757 44.8ZM335.407 46.48L334.739 45.7359L334.731 45.7428L335.407 46.48ZM331.557 55.02L330.561 54.9306L330.463 56.02H331.557V55.02ZM361.357 56.35C361.357 57.5251 361.289 58.7739 361.152 60.0971L363.141 60.3029C363.285 58.9194 363.357 57.6015 363.357 56.35H361.357ZM362.147 59.2H331.487V61.2H362.147V59.2ZM330.489 60.2616C330.735 64.246 332.1 67.4712 334.66 69.8259L336.014 68.3541C333.907 66.4154 332.706 63.714 332.485 60.1384L330.489 60.2616ZM334.675 69.8398C337.249 72.111 340.359 73.24 343.947 73.24V71.24C340.815 71.24 338.184 70.269 335.998 68.3402L334.675 69.8398ZM343.947 73.24C346.854 73.24 349.352 72.5735 351.376 71.1722L350.238 69.5278C348.622 70.6465 346.547 71.24 343.947 71.24V73.24ZM351.38 71.1692C353.419 69.7424 354.855 67.8442 355.671 65.4985L353.782 64.8415C353.105 66.7891 351.928 68.3443 350.233 69.5308L351.38 71.1692ZM354.727 66.17H361.587V64.17H354.727V66.17ZM360.623 64.9017C359.656 68.3753 357.73 71.2004 354.823 73.4029L356.031 74.9971C359.283 72.533 361.464 69.338 362.55 65.4383L360.623 64.9017ZM354.831 73.3971C351.954 75.5326 348.348 76.63 343.947 76.63V78.63C348.692 78.63 352.739 77.4408 356.023 75.0029L354.831 73.3971ZM343.947 76.63C340.462 76.63 337.368 75.8499 334.638 74.3092L333.655 76.0508C336.713 77.7768 340.151 78.63 343.947 78.63V76.63ZM334.644 74.3126C331.964 72.7745 329.853 70.6015 328.304 67.7702L326.549 68.7298C328.268 71.8719 330.636 74.3188 333.649 76.0474L334.644 74.3126ZM328.307 67.7759C326.764 64.909 325.977 61.5764 325.977 57.75H323.977C323.977 61.8569 324.823 65.5243 326.546 68.7241L328.307 67.7759ZM325.977 57.75C325.977 53.9186 326.742 50.6083 328.24 47.7892L326.474 46.8508C324.798 50.0051 323.977 53.6481 323.977 57.75H325.977ZM328.24 47.7892C329.74 44.9658 331.822 42.8227 334.494 41.3335L333.52 39.5865C330.498 41.2706 328.147 43.7008 326.474 46.8508L328.24 47.7892ZM334.498 41.3308C337.224 39.7922 340.364 39.01 343.947 39.01V37.01C340.063 37.01 336.576 37.8611 333.515 39.5892L334.498 41.3308ZM343.947 39.01C347.437 39.01 350.483 39.7692 353.114 41.26L354.1 39.52C351.131 37.8374 347.737 37.01 343.947 37.01V39.01ZM353.114 41.26C355.751 42.7546 357.762 44.8105 359.164 47.4406L360.929 46.4994C359.345 43.5295 357.062 41.1988 354.1 39.52L353.114 41.26ZM359.174 47.4582C360.622 50.0465 361.357 53.0018 361.357 56.35H363.357C363.357 52.6982 362.552 49.4002 360.92 46.4818L359.174 47.4582ZM356.777 55.02C356.777 52.4432 356.206 50.1756 355.016 48.2621L353.318 49.3179C354.275 50.8578 354.777 52.7435 354.777 55.02H356.777ZM355.022 48.2722C353.848 46.3319 352.23 44.8676 350.186 43.8967L349.328 45.7033C351.017 46.5057 352.339 47.7014 353.311 49.3078L355.022 48.2722ZM350.213 43.9102C348.239 42.8977 346.05 42.4 343.667 42.4V44.4C345.763 44.4 347.635 44.8356 349.3 45.6898L350.213 43.9102ZM343.667 42.4C340.213 42.4 337.218 43.5094 334.739 45.7359L336.075 47.224C338.169 45.3439 340.681 44.4 343.667 44.4V42.4ZM334.731 45.7428C332.271 47.9975 330.905 51.0954 330.561 54.9306L332.553 55.1094C332.862 51.6646 334.062 49.0692 336.083 47.2172L334.731 45.7428ZM331.557 56.02H355.777V54.02H331.557V56.02Z" fill="#E5E5E5"/>
</svg>
